<svg xmlns="http://www.w3.org/2000/svg" width="800" height="800" viewBox="0 0 24 24" fill="none" xmlns:v="https://vecta.io/nano"><path d="M14 4v.569c0 .428.287.799.682.963s.855.102 1.158-.201l.402-.402a1 1 0 0 1 1.414 0l1.414 1.414a1 1 0 0 1 0 1.414l-.402.402c-.303.303-.365.763-.201 1.158s.536.682.964.682H20a1 1 0 0 1 1 1v2a1 1 0 0 1-1 1h-.569c-.428 0-.799.287-.963.682s-.102.855.201 1.158l.402.402M4.929 17.657a1 1 0 0 1 0-1.414l.402-.402c.303-.303.365-.763.201-1.158S4.997 14 4.569 14H4a1 1 0 0 1-1-1v-2a1 1 0 0 1 1-1h.569c.428 0 .799-.287.964-.682s.102-.855-.201-1.158l-.402-.402a1 1 0 0 1 0-1.414l1.414-1.414a1 1 0 0 1 1.414 0l.402.402c.303.303.763.365 1.158.201S10 4.997 10 4.569V4a1 1 0 0 1 1-1M8.16 18.669c.303-.303.763-.365 1.158-.201s.682.536.682.964V20a1 1 0 0 0 1 1h2a1 1 0 0 0 1-1v-.569c0-.428.287-.8.682-.963s.855-.102 1.158.201l.402.402a1 1 0 0 0 1.414 0M14 12a2 2 0 1 1-4 0 2 2 0 0 1 2-2" stroke="#000" stroke-width="1.5" stroke-linecap="round"/></svg>